<svg width="34" height="29" viewBox="0 0 34 29" fill="none" xmlns="http://www.w3.org/2000/svg">
<path fill-rule="evenodd" clip-rule="evenodd" d="M3.4 14.4244C3.4 9.62589 6.78182 5.50284 11.6132 3.71408C11.0644 5.09329 10.7667 6.57179 10.7667 8.10851C10.7667 15.6217 17.8704 21.7123 26.6333 21.7123C26.9722 21.7123 27.3088 21.7031 27.6427 21.6851C25.1498 24.3675 21.3077 26.0849 17 26.0849C9.48892 26.0849 3.4 20.8644 3.4 14.4244ZM14.5453 0C6.3191 1.02094 0 7.08873 0 14.4244C0 22.4743 7.61115 29 17 29C23.9809 29 29.9753 25.3925 32.5929 20.2392L30.5066 18.2717C29.2894 18.6124 27.9883 18.7972 26.6333 18.7972C19.7482 18.7972 14.1667 14.0117 14.1667 8.10851C14.1667 5.94009 14.918 3.92657 16.2092 2.24348L14.5453 0ZM30.0333 0.820581V2.27813V4.22152H32.3H34V7.13661H32.3H30.0333V9.08001V10.5376H26.6333V9.08001V7.13661H24.3667H22.6667V4.22152H24.3667H26.6333V2.27813V0.820581H30.0333Z" fill="#F27445"/>
</svg>
