<svg width="34" height="29" viewBox="0 0 34 29" fill="none" xmlns="http://www.w3.org/2000/svg">
<path fill-rule="evenodd" clip-rule="evenodd" d="M18.5938 1.35938V0H15.4062V1.35938V3.625V4.98438H18.5938V3.625V1.35938ZM23.7618 6.81014L24.8886 5.84892L25.64 5.20811L26.7669 4.24689L29.0209 6.16933L27.8938 7.13056L27.1426 7.77137L26.0155 8.73259L23.7618 6.81014ZM17 19.0312C19.934 19.0312 22.3125 17.0025 22.3125 14.5C22.3125 11.9975 19.934 9.96875 17 9.96875C14.066 9.96875 11.6875 11.9975 11.6875 14.5C11.6875 17.0025 14.066 19.0312 17 19.0312ZM17 21.75C21.6943 21.75 25.5 18.504 25.5 14.5C25.5 10.4959 21.6943 7.25 17 7.25C12.3056 7.25 8.5 10.4959 8.5 14.5C8.5 18.504 12.3056 21.75 17 21.75ZM28.1562 13.1406H29.75H32.4062H34V15.8594H32.4062H29.75H28.1562V13.1406ZM1.59375 13.1406H0V15.8594H1.59375H4.25H5.84375V13.1406H4.25H1.59375ZM6.10615 21.8694L4.97919 22.8306L7.2331 24.7531L8.36005 23.7918L9.11134 23.1511L10.2383 22.1897L7.98439 20.2674L6.85744 21.2285L6.10615 21.8694ZM7.98437 8.73259L6.85742 7.77137L6.10612 7.13056L4.97917 6.16933L7.23308 4.24689L8.36003 5.20811L9.11132 5.84892L10.2383 6.81014L7.98437 8.73259ZM25.64 23.7918L26.7669 24.7531L29.0209 22.8306L27.8938 21.8694L27.1426 21.2285L26.0155 20.2674L23.7618 22.1897L24.8886 23.1511L25.64 23.7918ZM18.5938 24.0156V25.375V27.6406V29H15.4062V27.6406V25.375V24.0156H18.5938Z" fill="#F27445"/>
</svg>
